<svg width="10" height="10" viewBox="0 0 10 10" fill="none" xmlns="http://www.w3.org/2000/svg">
<path d="M5.00049 7.08301C5.10686 7.08247 5.21178 7.05826 5.30763 7.01214C5.40348 6.96601 5.48787 6.89913 5.55466 6.81634L7.30882 4.69134C7.41133 4.56341 7.47583 4.40926 7.49498 4.24645C7.51414 4.08365 7.48717 3.91873 7.41716 3.77051C7.36037 3.64169 7.26771 3.53193 7.15023 3.45435C7.03275 3.37677 6.89543 3.33465 6.75466 3.33301H3.24632C3.10555 3.33465 2.96822 3.37677 2.85075 3.45435C2.73327 3.53193 2.64061 3.64169 2.58382 3.77051C2.51381 3.91873 2.48684 4.08365 2.506 4.24645C2.52515 4.40926 2.58965 4.56341 2.69216 4.69134L4.44632 6.81634C4.51311 6.89913 4.5975 6.96601 4.69335 7.01214C4.7892 7.05826 4.89412 7.08247 5.00049 7.08301Z" fill="#FF0202"/>
</svg>
