<svg width="10" height="10" viewBox="0 0 10 10" fill="none" xmlns="http://www.w3.org/2000/svg">
<path d="M5.00049 3.33301C5.10686 3.33354 5.21178 3.35775 5.30763 3.40388C5.40348 3.45 5.48787 3.51688 5.55466 3.59967L7.30882 5.72467C7.41133 5.8526 7.47583 6.00676 7.49498 6.16956C7.51414 6.33237 7.48717 6.49728 7.41716 6.64551C7.36037 6.77433 7.26771 6.88409 7.15023 6.96167C7.03275 7.03924 6.89543 7.08137 6.75466 7.08301H3.24632C3.10555 7.08137 2.96822 7.03924 2.85075 6.96167C2.73327 6.88409 2.64061 6.77433 2.58382 6.64551C2.51381 6.49728 2.48684 6.33237 2.506 6.16956C2.52515 6.00676 2.58965 5.8526 2.69216 5.72467L4.44632 3.59967C4.51311 3.51688 4.5975 3.45 4.69335 3.40388C4.7892 3.35775 4.89412 3.33354 5.00049 3.33301Z" fill="#2BA000"/>
</svg>
