<svg width="24" height="24" viewBox="0 0 24 24" fill="none" xmlns="http://www.w3.org/2000/svg">
<path d="M22.004 18.3805H19.722C18.859 18.3805 18.599 17.6815 17.052 16.1335C15.7 14.8305 15.129 14.6685 14.787 14.6685C14.314 14.6685 14.185 14.7985 14.185 15.4495V17.5015C14.185 18.0565 14.005 18.3815 12.555 18.3815C11.1483 18.287 9.78416 17.8596 8.57497 17.1346C7.36578 16.4096 6.34612 15.4077 5.6 14.2115C3.82901 12.0061 2.59641 9.4183 2 6.65346C2 6.31146 2.13 6.00146 2.782 6.00146H5.062C5.648 6.00146 5.859 6.26246 6.089 6.86546C7.196 10.1235 9.085 12.9575 9.852 12.9575C10.146 12.9575 10.274 12.8275 10.274 12.0945V8.73846C10.177 7.20746 9.364 7.07846 9.364 6.52446C9.37428 6.3783 9.44114 6.24191 9.55037 6.14425C9.65961 6.0466 9.80261 5.99537 9.949 6.00146H13.533C14.023 6.00146 14.185 6.24546 14.185 6.83146V11.3615C14.185 11.8505 14.395 12.0125 14.543 12.0125C14.837 12.0125 15.063 11.8505 15.602 11.3125C16.7569 9.90312 17.7008 8.33337 18.404 6.65246C18.4756 6.45042 18.6116 6.27745 18.7909 6.16005C18.9703 6.04264 19.1832 5.98729 19.397 6.00246H21.678C22.362 6.00246 22.507 6.34446 22.362 6.83246C21.5321 8.69076 20.5056 10.4548 19.3 12.0945C19.054 12.4695 18.956 12.6645 19.3 13.1045C19.526 13.4465 20.326 14.1145 20.863 14.7495C21.645 15.5295 22.294 16.4315 22.785 17.4195C22.981 18.0555 22.655 18.3805 22.004 18.3805Z" fill="#0077FF"/>
</svg>
