<svg width="24" height="24" viewBox="0 0 24 24" fill="none" xmlns="http://www.w3.org/2000/svg">
<path d="M15.6734 3H12.8652C10.0568 3 7.64042 5.03535 7.64042 8.97877C7.64042 11.3322 8.81591 13.1131 10.8405 14.0035L7.05256 20.6184C6.92198 20.8092 7.05256 21 7.24855 21H9.0119C9.14249 21 9.27307 20.9364 9.33837 20.8092L12.7999 14.3216H14.0407V20.8092C14.0407 20.8728 14.1061 21 14.2367 21H15.8041C15.9347 21 16 20.9364 16 20.8092V3.25436C15.9347 3.06359 15.8694 3 15.6734 3ZM14.0407 12.7951H12.9958C8.48944 12.7951 8.81591 4.52654 12.7999 4.52654H14.1061V12.7951H14.0407Z" fill="#FF0000"/>
</svg>
