<svg width="20" height="21" viewBox="0 0 20 21" fill="none" xmlns="http://www.w3.org/2000/svg">
<path d="M13.026 9.1402L9.51715 12.6493L7.76272 10.8947M11.4874 3.40198L12.5584 4.31434C12.8286 4.54419 13.1637 4.68279 13.5164 4.71174L14.9199 4.82403C15.3188 4.85589 15.6934 5.02877 15.9765 5.31169C16.2595 5.59461 16.4326 5.96909 16.4647 6.36803L16.5761 7.77166C16.605 8.1252 16.7445 8.46119 16.9743 8.73051L17.8866 9.80078C18.1467 10.1056 18.2895 10.4932 18.2895 10.8939C18.2895 11.2945 18.1467 11.6821 17.8866 11.9869L16.9743 13.0581C16.7445 13.3283 16.605 13.6634 16.577 14.0169L16.4647 15.4206C16.4328 15.8195 16.26 16.1941 15.9771 16.4772C15.6942 16.7603 15.3197 16.9334 14.9208 16.9654L13.5172 17.0777C13.1639 17.1057 12.8284 17.2445 12.5584 17.4743L11.4874 18.3866C11.1825 18.6466 10.795 18.7895 10.3944 18.7895C9.99371 18.7895 9.60618 18.6466 9.30136 18.3866L8.23116 17.4743C7.96101 17.2443 7.62515 17.1055 7.27148 17.0777L5.86794 16.9654C5.46889 16.9333 5.09433 16.7601 4.8114 16.4769C4.52848 16.1936 4.3557 15.8188 4.32405 15.4197L4.21176 14.0169C4.18335 13.6638 4.0443 13.3285 3.81439 13.059L2.90208 11.9869C2.64254 11.6822 2.5 11.295 2.5 10.8947C2.5 10.4945 2.64254 10.1073 2.90208 9.80254L3.81439 8.73051C4.04509 8.46032 4.18282 8.1252 4.21089 7.77166L4.32317 6.36891C4.35511 5.96953 4.52835 5.59462 4.81179 5.31149C5.09523 5.02835 5.47032 4.85552 5.8697 4.82403L7.27148 4.71262C7.62494 4.68439 7.96048 4.54532 8.23028 4.31522L9.30136 3.40286C9.60618 3.14283 9.99371 3 10.3944 3C10.795 3 11.1825 3.14196 11.4874 3.40198Z" fill="url(#paint0_linear_444_1455)"/>
<path d="M13.0261 9.14062L9.51727 12.6497L7.76285 10.8952" stroke="white" stroke-width="1.5" stroke-linecap="round" stroke-linejoin="round"/>
<defs>
<linearGradient id="paint0_linear_444_1455" x1="5.05402" y1="3" x2="15.7355" y2="18.7895" gradientUnits="userSpaceOnUse">
<stop stop-color="#A1BCF6"/>
<stop offset="0.365385" stop-color="#2563EB"/>
<stop offset="1" stop-color="#1451D5"/>
</linearGradient>
</defs>
</svg>
