<svg width="16" height="16" viewBox="0 0 16 16" fill="none" xmlns="http://www.w3.org/2000/svg">
<path d="M10 6.66712L7.33334 9.33379L6 8.00046M8.83067 2.30646L9.64467 2.99979C9.85 3.17446 10.1047 3.27979 10.3727 3.30179L11.4393 3.38712C11.7425 3.41133 12.0272 3.54271 12.2423 3.75771C12.4574 3.97271 12.589 4.25729 12.6133 4.56046L12.698 5.62712C12.72 5.89579 12.826 6.15112 13.0007 6.35579L13.694 7.16912C13.8916 7.40078 14.0001 7.6953 14.0001 7.99979C14.0001 8.30428 13.8916 8.59879 13.694 8.83046L13.0007 9.64446C12.826 9.84979 12.72 10.1045 12.6987 10.3731L12.6133 11.4398C12.5891 11.743 12.4578 12.0276 12.2428 12.2427C12.0278 12.4579 11.7432 12.5894 11.44 12.6138L10.3733 12.6991C10.1048 12.7204 9.8498 12.8258 9.64467 13.0005L8.83067 13.6938C8.59901 13.8914 8.30449 13.9999 8 13.9999C7.69552 13.9999 7.401 13.8914 7.16934 13.6938L6.356 13.0005C6.1507 12.8257 5.89545 12.7202 5.62667 12.6991L4.56 12.6138C4.25673 12.5894 3.97207 12.4578 3.75705 12.2425C3.54204 12.0272 3.41073 11.7424 3.38667 11.4391L3.30134 10.3731C3.27975 10.1047 3.17407 9.84998 2.99934 9.64512L2.306 8.83046C2.10876 8.59889 2.00043 8.30464 2.00043 8.00046C2.00043 7.69627 2.10876 7.40202 2.306 7.17046L2.99934 6.35579C3.17467 6.15046 3.27934 5.89579 3.30067 5.62712L3.386 4.56112C3.41028 4.25763 3.54194 3.97272 3.75735 3.75755C3.97276 3.54239 4.25781 3.41105 4.56134 3.38712L5.62667 3.30246C5.89529 3.281 6.15029 3.17532 6.35534 3.00046L7.16934 2.30712C7.401 2.10952 7.69552 2.00098 8 2.00098C8.30449 2.00098 8.59901 2.10885 8.83067 2.30646Z" stroke="#1F2937" stroke-linecap="round" stroke-linejoin="round"/>
</svg>
