<svg width="24" height="24" viewBox="0 0 24 24" fill="none" xmlns="http://www.w3.org/2000/svg">
<mask id="mask0_407_39362" style="mask-type:luminance" maskUnits="userSpaceOnUse" x="0" y="0" width="24" height="24">
<path d="M24 0H0V24H24V0Z" fill="white"/>
</mask>
<g mask="url(#mask0_407_39362)">
<path d="M16.908 2.75L17.072 2.75391C17.892 2.79656 18.6735 3.15066 19.2625 3.75586C19.8519 4.36163 20.2024 5.17316 20.2449 6.03223L20.2498 6.20508V19.4785C20.2537 19.8314 20.1539 20.1761 19.9656 20.4668C19.7774 20.7572 19.5101 20.9792 19.2019 21.1074L19.1931 21.1113C18.9828 21.2019 18.7579 21.2473 18.531 21.248C18.3143 21.2472 18.099 21.2038 17.8982 21.1172L17.7507 21.0439C17.6062 20.9636 17.4732 20.8612 17.3562 20.7393L17.3503 20.7344L12.5359 15.8135L11.9998 15.2656L11.4636 15.8135L6.64917 20.7344L6.64331 20.7402C6.40679 20.9871 6.1057 21.152 5.78101 21.2178C5.45636 21.2835 5.11975 21.2475 4.81421 21.1133L4.80737 21.1104L4.79956 21.1074L4.68628 21.0547C4.4257 20.9226 4.19997 20.721 4.03491 20.4668C3.84625 20.1762 3.74606 19.8317 3.74976 19.4785V6.20508C3.75083 5.28268 4.10825 4.40204 4.73706 3.75586C5.32601 3.15064 6.10751 2.79656 6.92749 2.75391L7.09155 2.75H16.908Z" stroke="#170600" stroke-width="1.5"/>
</g>
</svg>
