<svg width="24" height="24" viewBox="0 0 24 24" fill="none" xmlns="http://www.w3.org/2000/svg">
<g clip-path="url(#clip0_407_40334)">
<path d="M8.36061 0.788944C5.96264 1.62082 3.89463 3.19976 2.46035 5.29382C1.02606 7.38789 0.301099 9.88671 0.391944 12.4233C0.48279 14.9598 1.38466 17.4004 2.96507 19.3864C4.54549 21.3725 6.72115 22.7995 9.17249 23.4577C11.1598 23.9705 13.242 23.993 15.24 23.5233C17.05 23.1168 18.7233 22.2471 20.0962 20.9996C21.5251 19.6615 22.5623 17.9592 23.0962 16.0758C23.6766 14.0277 23.7799 11.8738 23.3981 9.77957H12.2381V14.4089H18.7012C18.5721 15.1473 18.2953 15.852 17.8874 16.4809C17.4795 17.1098 16.949 17.6499 16.3275 18.0689C15.5383 18.591 14.6486 18.9423 13.7156 19.1002C12.7799 19.2742 11.8201 19.2742 10.8844 19.1002C9.93597 18.9041 9.0388 18.5127 8.24999 17.9508C6.98277 17.0538 6.03126 15.7794 5.53124 14.3096C5.02277 12.8122 5.02277 11.1888 5.53124 9.69144C5.88716 8.64185 6.47555 7.6862 7.25249 6.89582C8.1416 5.97472 9.26724 5.31631 10.5059 4.99284C11.7446 4.66936 13.0484 4.69331 14.2744 5.06207C15.2321 5.35605 16.1078 5.8697 16.8319 6.56207C17.5606 5.83707 18.2881 5.11019 19.0144 4.38144C19.3894 3.98957 19.7981 3.61644 20.1675 3.21519C19.0623 2.18671 17.765 1.38643 16.35 0.860194C13.7732 -0.0754498 10.9537 -0.100594 8.36061 0.788944Z" fill="white"/>
<path d="M8.36064 0.789855C10.9535 -0.100288 13.773 -0.0758051 16.35 0.85923C17.7653 1.38904 19.062 2.19318 20.1656 3.22548C19.7906 3.62673 19.395 4.00173 19.0125 4.39173C18.285 5.11798 17.5581 5.84173 16.8319 6.56298C16.1079 5.87061 15.2321 5.35696 14.2744 5.06298C13.0488 4.69293 11.7451 4.66759 10.5061 4.98975C9.26706 5.3119 8.14073 5.9691 7.25064 6.88923C6.4737 7.67961 5.88532 8.63526 5.52939 9.68486L1.64252 6.67548C3.03378 3.91653 5.44267 1.80615 8.36064 0.789855Z" fill="#E33629"/>
<path d="M0.611279 9.65605C0.820194 8.62067 1.16704 7.61798 1.64253 6.6748L5.5294 9.69168C5.02093 11.1891 5.02093 12.8124 5.5294 14.3098C4.2344 15.3098 2.93878 16.3148 1.64253 17.3248C0.452186 14.9554 0.0891526 12.2557 0.611279 9.65605Z" fill="#F8BD00"/>
<path d="M12.2381 9.77832H23.3981C23.7799 11.8726 23.6766 14.0264 23.0963 16.0746C22.5623 17.958 21.5252 19.6602 20.0963 20.9983C18.8419 20.0196 17.5819 19.0483 16.3275 18.0696C16.9494 17.6501 17.4802 17.1094 17.8881 16.4798C18.296 15.8503 18.5726 15.1448 18.7013 14.4058H12.2381C12.2363 12.8646 12.2381 11.3214 12.2381 9.77832Z" fill="#587DBD"/>
<path d="M1.64062 17.3246C2.93687 16.3246 4.2325 15.3196 5.5275 14.3096C6.02851 15.7799 6.98138 17.0544 8.25 17.9508C9.04126 18.5101 9.94037 18.8983 10.89 19.0908C11.8257 19.2648 12.7855 19.2648 13.7212 19.0908C14.6542 18.9329 15.5439 18.5816 16.3331 18.0596C17.5875 19.0383 18.8475 20.0096 20.1019 20.9883C18.7292 22.2366 17.0558 23.1068 15.2456 23.5139C13.2476 23.9836 11.1655 23.9611 9.17812 23.4483C7.60632 23.0286 6.13814 22.2888 4.86562 21.2752C3.51874 20.2059 2.41867 18.8583 1.64062 17.3246Z" fill="#319F43"/>
</g>
<defs>
<clipPath id="clip0_407_40334">
<rect width="24" height="24" fill="white"/>
</clipPath>
</defs>
</svg>
