<svg width="24" height="24" viewBox="0 0 24 24" fill="none" xmlns="http://www.w3.org/2000/svg">
<path fill-rule="evenodd" clip-rule="evenodd" d="M11.9993 3.07946L9.78648 5.36896C9.55095 5.61265 9.22657 5.75026 8.88767 5.75026H5.74928V8.88865C5.74928 9.22756 5.61167 9.55193 5.36798 9.78746L3.07848 12.0003L5.36798 14.2131C5.61167 14.4486 5.74928 14.773 5.74928 15.1119V18.2503H8.88767C9.22657 18.2503 9.55095 18.3879 9.78648 18.6316L11.9993 20.9211L14.2121 18.6316C14.4476 18.3879 14.772 18.2503 15.1109 18.2503H18.2493V15.1119C18.2493 14.773 18.3869 14.4486 18.6306 14.2131L20.9201 12.0003L18.6306 9.78747C18.3869 9.55194 18.2493 9.22756 18.2493 8.88866V5.75026H15.1109C14.772 5.75026 14.4476 5.61265 14.2121 5.36896L11.9993 3.07946ZM11.1005 1.85103C11.5919 1.34263 12.4067 1.34263 12.8981 1.85103L15.217 4.25026H18.4993C19.1897 4.25026 19.7493 4.80991 19.7493 5.50026V8.7826L22.1485 11.1015C22.6569 11.5929 22.6569 12.4077 22.1485 12.8991L19.7493 15.218V18.5003C19.7493 19.1907 19.1897 19.7503 18.4993 19.7503H15.217L12.8981 22.1495C12.4067 22.6579 11.5919 22.6579 11.1005 22.1495L8.78161 19.7503H5.49928C4.80892 19.7503 4.24928 19.1907 4.24928 18.5003V15.218L1.85005 12.8991C1.34165 12.4077 1.34164 11.5929 1.85005 11.1015L4.24928 8.78259V5.50026C4.24928 4.8099 4.80892 4.25026 5.49928 4.25026H8.78161L11.1005 1.85103Z" fill="#170600"/>
<path fill-rule="evenodd" clip-rule="evenodd" d="M7.25 12C7.25 9.37665 9.37665 7.25 12 7.25C14.6234 7.25 16.75 9.37665 16.75 12C16.75 14.6234 14.6234 16.75 12 16.75C9.37665 16.75 7.25 14.6234 7.25 12ZM12 8.75C10.2051 8.75 8.75 10.2051 8.75 12C8.75 13.7949 10.2051 15.25 12 15.25C13.7949 15.25 15.25 13.7949 15.25 12C15.25 10.2051 13.7949 8.75 12 8.75Z" fill="#170600"/>
</svg>
