<svg width="80" height="20" viewBox="0 0 80 20" fill="none" xmlns="http://www.w3.org/2000/svg">
<path d="M3.48984 19.589H0V0.410958H3.70296L9.11089 12.8493H9.16417L14.5721 0.410958H18.3017V19.589H14.7852V7.80822H14.7319L9.43057 19.589H8.84449L3.54312 7.80822H3.48984V19.589Z" fill="#1F2937"/>
<path d="M24.5536 19.589H20.9572V0.410958H28.5229C30.4233 0.410958 31.9684 0.968036 33.1583 2.08219C34.3482 3.17808 34.9432 4.65753 34.9432 6.52055C34.9432 8.38356 34.366 9.86301 33.2116 10.9589C32.0749 12.0548 30.5121 12.6027 28.5229 12.6027H24.5536V19.589ZM24.5536 3.83562V9.17808H28.4697C29.2689 9.17808 29.926 8.94064 30.441 8.46575C30.9561 7.9726 31.2136 7.3242 31.2136 6.52055C31.2136 5.62557 30.9649 4.9589 30.4677 4.52055C29.9704 4.06393 29.3044 3.83562 28.4697 3.83562H24.5536Z" fill="#1F2937"/>
<path d="M39.215 19.589H35.6185V0.410958H43.1843C45.1202 0.410958 46.6653 0.968036 47.8197 2.08219C49.0096 3.17808 49.6046 4.65753 49.6046 6.52055C49.6046 7.89041 49.2582 9.06849 48.5656 10.0548C47.873 11.0228 46.905 11.7078 45.6618 12.1096L49.6312 19.589H45.7418L41.9855 12.4658H39.215V19.589ZM39.215 3.75342V9.26027H42.8913C44.9337 9.26027 45.9549 8.34703 45.9549 6.52055C45.9549 4.6758 44.9337 3.75342 42.8913 3.75342H39.215Z" fill="#1F2937"/>
<path d="M50.5567 13.3425V0.410958H54.1531V13.1781C54.1531 14.2374 54.4462 15.0685 55.0323 15.6712C55.6183 16.274 56.4619 16.5753 57.5631 16.5753C58.6642 16.5753 59.5078 16.2831 60.0939 15.6986C60.6977 15.0959 60.9996 14.274 60.9996 13.2329V0.410958H64.596V13.3425C64.596 15.4612 63.9655 17.105 62.7046 18.274C61.4436 19.4247 59.7298 20 57.5631 20C55.3963 20 53.6825 19.4247 52.4215 18.274C51.1783 17.105 50.5567 15.4612 50.5567 13.3425Z" fill="#1F2937"/>
<path d="M65.6677 13.1781L69.4505 12.3288C69.6814 13.863 70.0633 14.9589 70.5961 15.6164C71.1466 16.2557 71.9991 16.5753 73.1535 16.5753C74.1836 16.5753 74.9917 16.3836 75.5778 16C76.1816 15.6164 76.4835 15.0685 76.4835 14.3562C76.4835 13.589 76.1905 13.0046 75.6044 12.6027C75.0361 12.1826 73.7218 11.6438 71.6617 10.9863C69.7614 10.3836 68.3938 9.64384 67.5591 8.76712C66.7421 7.89041 66.3337 6.78539 66.3337 5.45205C66.3337 3.95434 66.8931 2.6758 68.012 1.61644C69.1664 0.538813 70.7026 0 72.6207 0C74.4322 0 75.9596 0.447489 77.2028 1.34247C78.446 2.23744 79.2274 3.53425 79.5471 5.23288L76.0573 6.13699C75.5067 4.32877 74.3612 3.42466 72.6207 3.42466C71.715 3.42466 71.0312 3.60731 70.5694 3.9726C70.1077 4.31963 69.8768 4.80365 69.8768 5.42466C69.8768 5.99087 70.1343 6.42922 70.6494 6.73973C71.1466 7.03196 72.4697 7.55251 74.6187 8.30137C76.6611 9.03196 78.073 9.82648 78.8545 10.6849C79.6182 11.5251 80 12.6667 80 14.1096C80 15.8082 79.3784 17.2146 78.1352 18.3288C76.892 19.4429 75.2314 20 73.1535 20C71.0045 20 69.2818 19.4247 67.9854 18.274C66.7066 17.105 65.9341 15.4064 65.6677 13.1781Z" fill="#1F2937"/>
</svg>
