<svg width="64" height="64" viewBox="0 0 64 64" fill="none" xmlns="http://www.w3.org/2000/svg">
<path d="M55.8053 26.64C38.1786 24.2187 22.9786 37.3067 23.9999 54.6667M17.3333 21.3333C17.3333 22.7478 17.8952 24.1044 18.8953 25.1046C19.8955 26.1048 21.2521 26.6667 22.6666 26.6667C24.0811 26.6667 25.4376 26.1048 26.4378 25.1046C27.438 24.1044 27.9999 22.7478 27.9999 21.3333C27.9999 19.9188 27.438 18.5623 26.4378 17.5621C25.4376 16.5619 24.0811 16 22.6666 16C21.2521 16 19.8955 16.5619 18.8953 17.5621C17.8952 18.5623 17.3333 19.9188 17.3333 21.3333Z" stroke="#D7D7DA" stroke-width="1.5" stroke-linecap="round" stroke-linejoin="round"/>
<path d="M8 34.8431C15.4133 33.8164 22.0667 37.3978 25.664 43.1098" stroke="#D7D7DA" stroke-width="1.5" stroke-linecap="round" stroke-linejoin="round"/>
<path d="M8 25.0667C8 19.0933 8 16.1067 9.16267 13.824C10.1853 11.817 11.817 10.1853 13.824 9.16267C16.1067 8 19.0933 8 25.0667 8H38.9333C44.9067 8 47.8933 8 50.176 9.16267C52.183 10.1853 53.8147 11.817 54.8373 13.824C56 16.1067 56 19.0933 56 25.0667V38.9333C56 44.9067 56 47.8933 54.8373 50.176C53.8147 52.183 52.183 53.8147 50.176 54.8373C47.8933 56 44.9067 56 38.9333 56H25.0667C19.0933 56 16.1067 56 13.824 54.8373C11.817 53.8147 10.1853 52.183 9.16267 50.176C8 47.8933 8 44.9067 8 38.9333V25.0667Z" stroke="#D7D7DA" stroke-width="1.5" stroke-linecap="round" stroke-linejoin="round"/>
</svg>
