<svg width="32" height="32" viewBox="0 0 32 32" fill="none" xmlns="http://www.w3.org/2000/svg">
<path opacity="0.5" d="M17.0596 2.66602H14.3929C11.8782 2.66602 10.6209 2.66602 9.8409 3.44735C9.05957 4.22868 9.05957 5.48468 9.05957 7.99935V12.666H22.3929V7.99935C22.3929 5.48468 22.3929 4.22868 21.6116 3.44735C20.8302 2.66602 19.5742 2.66602 17.0596 2.66602Z" fill="#F5B54B"/>
<path fill-rule="evenodd" clip-rule="evenodd" d="M17.6397 7.71067C17.0523 7.39045 16.394 7.22266 15.725 7.22266C15.056 7.22266 14.3977 7.39045 13.8103 7.71067L7.41834 11.196C6.78728 11.54 6.26058 12.0478 5.89362 12.6658C5.52667 13.2838 5.33301 13.9893 5.33301 14.708V21.292C5.33301 22.0107 5.52667 22.7162 5.89362 23.3342C6.26058 23.9522 6.78728 24.46 7.41834 24.804L13.8103 28.2893C14.3977 28.6096 15.056 28.7773 15.725 28.7773C16.394 28.7773 17.0523 28.6096 17.6397 28.2893L24.033 24.804C24.6641 24.46 25.1908 23.9522 25.5577 23.3342C25.9247 22.7162 26.1183 22.0107 26.1183 21.292V14.7067C26.1183 13.9879 25.9247 13.2825 25.5577 12.6644C25.1908 12.0464 24.6641 11.5387 24.033 11.1947L17.6397 7.71067ZM15.725 14C15.3463 14 15.093 14.4533 14.5863 15.364L14.4557 15.5987C14.3117 15.8573 14.2397 15.9853 14.1277 16.0707C14.0157 16.156 13.8743 16.188 13.5957 16.2507L13.3423 16.3093C12.357 16.532 11.865 16.6427 11.749 17.0187C11.6317 17.396 11.9663 17.788 12.637 18.572L12.8103 18.7747C13.0023 18.9973 13.097 19.108 13.1397 19.2467C13.1823 19.3853 13.169 19.5333 13.1397 19.8307L13.113 20.1013C13.0117 21.148 12.961 21.672 13.2677 21.904C13.5743 22.136 14.0343 21.924 14.9557 21.5L15.1943 21.3907C15.4557 21.2707 15.5863 21.2107 15.725 21.2107C15.8637 21.2107 15.9957 21.2707 16.257 21.3907L16.4957 21.5C17.4157 21.9253 17.877 22.136 18.1837 21.904C18.4903 21.672 18.4397 21.148 18.3383 20.1013L18.3117 19.8307C18.2823 19.5333 18.2677 19.3853 18.3117 19.2467C18.3543 19.1093 18.449 18.9973 18.6397 18.7747L18.813 18.572C19.485 17.788 19.8197 17.396 19.7023 17.0187C19.585 16.6427 19.093 16.532 18.1103 16.3093L17.8557 16.2507C17.5757 16.188 17.4357 16.1573 17.3237 16.0707C17.2117 15.9853 17.1397 15.8573 16.9957 15.5987L16.865 15.364C16.3583 14.4547 16.105 14 15.725 14Z" fill="#F5B54B"/>
</svg>
