<svg width="16" height="16" viewBox="0 0 16 16" fill="none" xmlns="http://www.w3.org/2000/svg">
<path d="M3.502 11H8.502C8.62695 10.9998 8.74746 11.0463 8.83979 11.1305C8.93212 11.2147 8.98959 11.3304 9.00088 11.4548C9.01217 11.5793 8.97646 11.7034 8.90079 11.8028C8.82511 11.9023 8.71495 11.9697 8.592 11.992L8.502 12H3.502C3.37706 12.0002 3.25655 11.9537 3.16422 11.8695C3.07189 11.7853 3.01442 11.6696 3.00313 11.5452C2.99184 11.4207 3.02755 11.2966 3.10322 11.1972C3.1789 11.0977 3.28906 11.0303 3.412 11.008L3.502 11ZM5.148 5.146C5.23086 5.06332 5.3401 5.01234 5.45668 5.00192C5.57326 4.99151 5.68981 5.02232 5.786 5.089L5.856 5.147L9.854 9.147C9.94129 9.23547 9.9925 9.35327 9.99764 9.47744C10.0028 9.60162 9.96151 9.72326 9.88186 9.81865C9.8022 9.91404 9.68987 9.97634 9.56677 9.99342C9.44367 10.0105 9.31862 9.98111 9.216 9.911L9.146 9.853L5.148 5.853C5.05427 5.75924 5.00161 5.63208 5.00161 5.4995C5.00161 5.36692 5.05427 5.23976 5.148 5.146ZM11.502 3C11.6189 3.00019 11.732 3.04131 11.8216 3.11621C11.9113 3.19111 11.972 3.29505 11.993 3.41L12.002 3.5V8.5C12.0022 8.62495 11.9557 8.74545 11.8715 8.83778C11.7873 8.93012 11.6716 8.98759 11.5472 8.99888C11.4227 9.01017 11.2986 8.97446 11.1992 8.89878C11.0998 8.8231 11.0323 8.71295 11.01 8.59L11.002 8.5V3.5C11.002 3.36739 11.0547 3.24021 11.1485 3.14645C11.2422 3.05268 11.3694 3 11.502 3Z" fill="#1F2937"/>
</svg>
